<?xml version="1.0" ?><!DOCTYPE svg  PUBLIC '-//W3C//DTD SVG 1.1//EN'  'http://www.w3.org/Graphics/SVG/1.1/DTD/svg11.dtd'><svg enable-background="new 0 0 96 96" height="96px" version="1.1" viewBox="0 0 96 96" width="96px" xml:space="preserve" xmlns="http://www.w3.org/2000/svg" xmlns:xlink="http://www.w3.org/1999/xlink"><g id="Dibujo"><g><path d="M50,60V48c0-1.104-0.896-2-2-2c-1.104,0-2,0.896-2,2v12c0,1.104,0.896,2,2,2C49.105,62,50,61.104,50,60z"/><path d="M41,66V54c0-1.104-0.896-2-2-2c-1.104,0-2,0.896-2,2v12c0,1.104,0.896,2,2,2C40.105,68,41,67.104,41,66z"/><path d="M59,66V54c0-1.104-0.896-2-2-2c-1.104,0-2,0.896-2,2v12c0,1.104,0.896,2,2,2C58.105,68,59,67.104,59,66z"/><path d="M40,72h-2c-1.104,0-2,0.896-2,2v2c0,1.104,0.896,2,2,2h2c1.104,0,2-0.896,2-2v-2C42,72.896,41.105,72,40,72z"/><path d="M49,66h-2c-1.104,0-2,0.896-2,2v2c0,1.104,0.896,2,2,2h2c1.104,0,2-0.896,2-2v-2C51,66.896,50.105,66,49,66z"/><path d="M58,72h-2c-1.104,0-2,0.896-2,2v2c0,1.104,0.896,2,2,2h2c1.104,0,2-0.896,2-2v-2C60,72.896,59.105,72,58,72z"/><path d="M66,40c-0.508,0-1.112,0.079-1.689,0.184C62.218,33.012,55.664,28,48,28c-7.664,0-14.218,5.012-16.312,12.184    C31.113,40.079,30.508,40,30,40c-6.065,0-11,4.935-11,11s4.935,11,11,11h2c1.104,0,2-0.896,2-2s-0.896-2-2-2h-2    c-3.86,0-7-3.141-7-7s3.14-7,7-7c0.277,0,0.723,0.068,1.193,0.162V46c0,1.104,0.896,2,2,2s2-0.896,2-2v-3.221    C36.268,36.527,41.631,32,48,32c6.371,0,11.734,4.529,12.807,10.783V46c0,1.104,0.896,2,2,2s2-0.896,2-2v-1.837    C65.279,44.069,65.726,44,66,44c3.859,0,7,3.141,7,7s-3.141,7-7,7h-2c-1.104,0-2,0.896-2,2s0.896,2,2,2h2c6.065,0,11-4.935,11-11    S72.066,40,66,40z"/></g></g></svg>