<?xml version="1.0" ?><!DOCTYPE svg  PUBLIC '-//W3C//DTD SVG 1.1//EN'  'http://www.w3.org/Graphics/SVG/1.1/DTD/svg11.dtd'><svg enable-background="new 0 0 96 96" height="96px" version="1.1" viewBox="0 0 96 96" width="96px" xml:space="preserve" xmlns="http://www.w3.org/2000/svg" xmlns:xlink="http://www.w3.org/1999/xlink"><g id="Dibujo"><g><path d="M46,48.001v18c0,1.104,0.895,2,2,2c1.104,0,2-0.896,2-2v-18c0-1.104-0.896-2-2-2C46.895,46.001,46,46.896,46,48.001z"/><path d="M23,67.001h-2c-1.105,0-2,0.896-2,2v2c0,1.104,0.895,2,2,2h2c1.104,0,2-0.896,2-2v-2C25,67.896,24.104,67.001,23,67.001z"/><path d="M49,72.001h-2c-1.105,0-2,0.896-2,2v2c0,1.104,0.895,2,2,2h2c1.104,0,2-0.896,2-2v-2C51,72.896,50.104,72.001,49,72.001z"/><path d="M76,64.001h-2c-1.105,0-2,0.896-2,2v2c0,1.104,0.895,2,2,2h2c1.104,0,2-0.896,2-2v-2C78,64.896,77.104,64.001,76,64.001z"/><path d="M30,62.001h2c1.104,0,2-0.896,2-2s-0.896-2-2-2h-2c-3.859,0-7-3.141-7-7s3.141-7,7-7c0.277,0,0.723,0.068,1.193,0.162    v1.838c0,1.104,0.895,2,2,2c1.105,0,2-0.896,2-2v-3.219C36.266,36.529,41.629,32.001,48,32.001c6.372,0,11.736,4.53,12.807,10.786    v3.214c0,1.104,0.896,2,2,2s2-0.896,2-2v-1.837c0.472-0.094,0.919-0.163,1.193-0.163c3.859,0,7,3.141,7,7s-3.141,7-7,7h-2    c-1.105,0-2,0.896-2,2s0.895,2,2,2h2c6.065,0,11-4.935,11-11s-4.935-11-11-11c-0.508,0-1.112,0.079-1.69,0.184    C62.218,33.013,55.663,28.001,48,28.001c-7.664,0-14.219,5.012-16.312,12.184c-0.576-0.104-1.182-0.184-1.688-0.184    c-6.065,0-11,4.935-11,11S23.935,62.001,30,62.001z"/><path d="M39,52.001c-1.105,0-2,0.896-2,2v15.074c-1.178-0.683-2.544-1.073-4-1.073h-2c-1.105,0-2,0.896-2,2s0.895,2,2,2h2    c2.206,0,4,1.794,4,4c0,1.104,0.895,2,2,2c1.104,0,2-0.896,2-2V54.001C41,52.896,40.104,52.001,39,52.001z"/><path d="M66,65.001c-2.657,0-5.097,0.947-7,2.521V54.001c0-1.104-0.896-2-2-2c-1.105,0-2,0.896-2,2v22c0,0.001,0,0.001,0,0.001    c0,1.104,0.895,2,2,2c1.104,0,2-0.896,2-2v-0.001c0-3.859,3.141-7,7-7c1.104,0,2-0.896,2-2S67.104,65.001,66,65.001z"/></g></g></svg>