<?xml version="1.0" ?><!DOCTYPE svg  PUBLIC '-//W3C//DTD SVG 1.1//EN'  'http://www.w3.org/Graphics/SVG/1.1/DTD/svg11.dtd'><svg enable-background="new 0 0 96 96" height="96px" version="1.1" viewBox="0 0 96 96" width="96px" xml:space="preserve" xmlns="http://www.w3.org/2000/svg" xmlns:xlink="http://www.w3.org/1999/xlink"><g id="Dibujo"><g><path d="M72.555,42.188c0.945-1.915,1.444-4.021,1.444-6.188c0-7.72-6.28-14-14-14c-4.601,0-8.895,2.281-11.496,6.021    C48.335,28.016,48.169,28,48,28c-7.664,0-14.219,5.012-16.312,12.184C31.112,40.079,30.507,40,30,40c-6.065,0-11,4.935-11,11    s4.935,11,11,11c1.104,0,2-0.896,2-2s-0.896-2-2-2c-3.859,0-7-3.141-7-7s3.141-7,7-7c0.277,0,0.723,0.068,1.193,0.162V46    c0,1.104,0.896,2,2,2c1.104,0,2-0.896,2-2v-3.219C36.266,36.528,41.629,32,48,32c6.37,0,11.733,4.528,12.807,10.782V46    c0,1.104,0.895,2,2,2c1.105,0,2-0.896,2-2v-1.838C65.277,44.068,65.723,44,66,44c3.859,0,7,3.141,7,7s-3.141,7-7,7    c-1.104,0-2,0.896-2,2s0.896,2,2,2c6.065,0,11-4.935,11-11C77,47.393,75.246,44.194,72.555,42.188z M64.311,40.184    c-1.608-5.511-5.855-9.735-11.211-11.401C54.938,27.03,57.396,26,59.999,26c5.514,0,10,4.486,10,10    c0,1.549-0.36,3.051-1.035,4.417C68.019,40.152,67.028,40,66,40C65.492,40,64.888,40.079,64.311,40.184z"/><path d="M59.999,18c1.104,0,2-0.896,2-2v-4c0-1.104-0.896-2-2-2c-1.105,0-2,0.896-2,2v4C57.999,17.104,58.894,18,59.999,18z"/><path d="M83.999,34h-4c-1.105,0-2,0.896-2,2s0.895,2,2,2h4c1.104,0,2-0.896,2-2S85.103,34,83.999,34z"/><path d="M74.142,23.857c0.512,0,1.023-0.195,1.414-0.586l2.828-2.828c0.781-0.781,0.781-2.047,0-2.828    c-0.781-0.781-2.047-0.781-2.828,0l-2.828,2.828c-0.781,0.781-0.781,2.047,0,2.828C73.118,23.662,73.63,23.857,74.142,23.857z"/><path d="M44.443,23.271c0.391,0.391,0.902,0.586,1.414,0.586c0.512,0,1.023-0.195,1.414-0.586c0.781-0.781,0.781-2.047,0-2.828    l-2.828-2.828c-0.781-0.781-2.047-0.781-2.828,0c-0.781,0.781-0.781,2.047,0,2.828L44.443,23.271z"/><path d="M49.485,52.06c-1.069-0.268-2.157,0.384-2.426,1.455l-6,24c-0.268,1.072,0.384,2.158,1.455,2.426    c0.163,0.041,0.326,0.06,0.487,0.06c0.896,0,1.711-0.606,1.938-1.515l6-24C51.208,53.413,50.557,52.327,49.485,52.06z"/><path d="M57.485,58.06c-1.068-0.267-2.157,0.384-2.426,1.455l-3,12c-0.268,1.072,0.384,2.158,1.455,2.426    c0.163,0.041,0.326,0.06,0.487,0.06c0.895,0,1.711-0.606,1.938-1.515l3-12C59.208,59.413,58.557,58.327,57.485,58.06z"/><path d="M38.485,58.06c-1.068-0.267-2.157,0.384-2.426,1.455l-3,12c-0.268,1.072,0.384,2.158,1.455,2.426    c0.163,0.041,0.326,0.06,0.487,0.06c0.896,0,1.711-0.606,1.938-1.515l3-12C40.208,59.413,39.557,58.327,38.485,58.06z"/></g></g></svg>