<?xml version="1.0" ?><!DOCTYPE svg  PUBLIC '-//W3C//DTD SVG 1.1//EN'  'http://www.w3.org/Graphics/SVG/1.1/DTD/svg11.dtd'><svg enable-background="new 0 0 96 96" height="96px" version="1.1" viewBox="0 0 96 96" width="96px" xml:space="preserve" xmlns="http://www.w3.org/2000/svg" xmlns:xlink="http://www.w3.org/1999/xlink"><g id="Dibujo"><path d="M48,78c-1.105,0-2,0.896-2,2v4c0,1.104,0.895,2,2,2c1.104,0,2-0.896,2-2v-4C50,78.896,49.104,78,48,78z M44.443,23.271   c0.391,0.391,0.902,0.586,1.414,0.586s1.024-0.195,1.414-0.586c0.781-0.781,0.781-2.047,0-2.828l-2.828-2.828   c-0.781-0.781-2.047-0.781-2.828,0c-0.781,0.781-0.781,2.047,0,2.828L44.443,23.271z M60,18c1.104,0,2-0.896,2-2v-4   c0-1.104-0.896-2-2-2c-1.105,0-2,0.896-2,2v4C58,17.104,58.895,18,60,18z M74.143,23.857c0.512,0,1.023-0.195,1.414-0.586   l2.828-2.828c0.781-0.781,0.781-2.047,0-2.828c-0.781-0.781-2.047-0.781-2.828,0l-2.828,2.828c-0.781,0.781-0.781,2.047,0,2.828   C73.119,23.662,73.631,23.857,74.143,23.857z M39,72c-1.105,0-2,0.896-2,2v4c0,1.104,0.895,2,2,2c1.104,0,2-0.896,2-2v-4   C41,72.896,40.104,72,39,72z M84,34h-4c-1.105,0-2,0.896-2,2s0.895,2,2,2h4c1.104,0,2-0.896,2-2S85.104,34,84,34z M48,66   c-1.105,0-2,0.896-2,2v4c0,1.104,0.895,2,2,2c1.104,0,2-0.896,2-2v-4C50,66.896,49.104,66,48,66z M72.556,42.187   C73.501,40.271,74,38.166,74,36c0-7.72-6.28-14-14-14c-4.601,0-8.895,2.281-11.496,6.021C48.336,28.016,48.17,28,48.001,28   c-7.664,0-14.219,5.012-16.312,12.184C31.113,40.079,30.508,40,30.001,40c-6.066,0-11,4.935-11,11s4.934,11,11,11H37v4   c0,1.104,0.895,2,2,2c1.104,0,2-0.896,2-2v-4h14v4c0,1.104,0.895,2,2,2c1.104,0,2-0.896,2-2v-4h7.001c6.065,0,11-4.935,11-11   C77.001,47.392,75.247,44.194,72.556,42.187z M60,26c5.514,0,10,4.486,10,10c0,1.548-0.36,3.05-1.036,4.417   C68.019,40.152,67.028,40,66.001,40c-0.508,0-1.112,0.079-1.69,0.184c-1.608-5.511-5.854-9.735-11.21-11.401   C54.939,27.03,57.397,26,60,26z M66.001,58h-36c-3.859,0-7-3.141-7-7s3.141-7,7-7c0.277,0,0.723,0.068,1.192,0.162V46   c0,1.104,0.896,2,2,2s2-0.896,2-2v-3.214C36.264,36.53,41.628,32,48.001,32c6.37,0,11.733,4.528,12.806,10.781V46   c0,1.104,0.896,2,2,2s2-0.896,2-2v-1.837C65.278,44.069,65.727,44,66.001,44c3.859,0,7,3.141,7,7S69.86,58,66.001,58z M57,72   c-1.105,0-2,0.896-2,2v4c0,1.104,0.895,2,2,2c1.104,0,2-0.896,2-2v-4C59,72.896,58.104,72,57,72z"/></g></svg>